<svg xmlns="http://www.w3.org/2000/svg" xmlns:xlink="http://www.w3.org/1999/xlink" viewBox="0 0 97.28 104.71"><defs><style>.cls-1{fill:url(#linear-gradient);}.cls-2{fill:url(#linear-gradient-2);}.cls-3{fill:url(#linear-gradient-4);}.cls-4{fill:url(#linear-gradient-5);}</style><linearGradient id="linear-gradient" x1="48.64" y1="-1.55" x2="48.64" y2="99.72" gradientUnits="userSpaceOnUse"><stop offset="0" stop-color="#ffc100"/><stop offset="1" stop-color="#ff5722"/></linearGradient><linearGradient id="linear-gradient-2" x1="20.82" y1="-1.55" x2="20.82" y2="99.72" xlink:href="#linear-gradient"/><linearGradient id="linear-gradient-4" x1="63.94" y1="-1.55" x2="63.94" y2="99.72" xlink:href="#linear-gradient"/><linearGradient id="linear-gradient-5" x1="36.81" y1="-1.55" x2="36.81" y2="99.72" xlink:href="#linear-gradient"/></defs><g id="Layer_2" data-name="Layer 2"><g id="OBJECTS"><path class="cls-1" d="M87.65,29.59h-78A9.64,9.64,0,0,0,.13,40.8h0A17,17,0,0,0,21.3,54.43l11.56-3.1A8.44,8.44,0,0,1,43.2,61.66l-.6,2.24a18.63,18.63,0,0,0,18,23.45H81.23a9.63,9.63,0,0,0,9.5-8l6.41-38.5A9.62,9.62,0,0,0,87.65,29.59Z"/><path class="cls-2" d="M29.35,60.13l-19.2,5.14A4.13,4.13,0,0,0,9.4,73l6.9,3.38a4.17,4.17,0,0,1,1.89,1.89l3.38,6.89a4.12,4.12,0,0,0,7.69-.74l5.14-19.2A4.13,4.13,0,0,0,29.35,60.13Z"/><path class="cls-1" d="M66.24,25.05a3.67,3.67,0,0,1-3.67-3.67v-.11a13.94,13.94,0,1,0-27.87,0v.11a3.67,3.67,0,1,1-7.33,0v-.11a21.27,21.27,0,1,1,42.53,0v.11A3.66,3.66,0,0,1,66.24,25.05Z"/><circle class="cls-3" cx="63.94" cy="99.62" r="5.09"/><circle class="cls-4" cx="36.81" cy="99.62" r="5.09"/></g></g></svg>